<?xml version="1.0" standalone="no"?>
<!DOCTYPE svg PUBLIC "-//W3C//DTD SVG 20010904//EN"
 "http://www.w3.org/TR/2001/REC-SVG-20010904/DTD/svg10.dtd">
<svg version="1.0" xmlns="http://www.w3.org/2000/svg" viewBox="0 0 200.000000 200.000000">
<g transform="translate(0.000000,200.000000) scale(0.100000,-0.100000)"
fill="#000000" stroke="none">
<path d="M883 1745 c-171 -37 -321 -175 -373 -344 -23 -73 -27 -210 -8 -291
13 -59 458 -930 482 -945 11 -7 21 -7 32 0 24 15 472 893 484 948 13 61 13
199 -1 257 -18 79 -71 172 -134 235 -127 129 -302 179 -482 140z m201 -100
c226 -48 369 -274 312 -495 -33 -127 -107 -219 -218 -271 -69 -32 -79 -34
-179 -34 -101 0 -108 1 -181 37 -151 75 -240 232 -224 398 8 86 8 87 38 145
58 112 162 194 279 220 83 17 91 17 173 0z"/>
<path d="M929 1528 c-28 -57 -53 -104 -54 -106 -2 -2 -47 -10 -101 -18 -137
-20 -144 -22 -144 -43 0 -11 36 -53 85 -98 l84 -78 -19 -105 c-11 -58 -20
-113 -20 -122 0 -29 34 -21 140 32 l100 50 100 -50 c106 -53 140 -61 140 -32
0 9 -9 64 -20 122 l-19 105 84 78 c49 45 85 87 85 98 0 21 -7 23 -144 43 -54
8 -99 16 -101 18 -1 2 -26 49 -54 106 -39 78 -56 102 -71 102 -15 0 -32 -24
-71 -102z"/>
</g>
</svg>
