<?xml version="1.0" standalone="no"?>
<!DOCTYPE svg PUBLIC "-//W3C//DTD SVG 20010904//EN"
 "http://www.w3.org/TR/2001/REC-SVG-20010904/DTD/svg10.dtd">
<svg version="1.0" xmlns="http://www.w3.org/2000/svg"
 width="200.000000pt" height="200.000000pt" viewBox="0 0 200.000000 200.000000"
 preserveAspectRatio="xMidYMid meet">
<metadata>
Created by potrace 1.15, written by Peter Selinger 2001-2017
</metadata>
<g transform="translate(0.000000,200.000000) scale(0.100000,-0.100000)"
fill="#000000" stroke="none">
<path d="M883 1745 c-171 -37 -321 -175 -373 -344 -23 -73 -27 -210 -8 -291
13 -59 458 -930 482 -945 11 -7 21 -7 32 0 24 15 472 893 484 948 13 61 13
199 -1 257 -18 79 -71 172 -134 235 -127 129 -302 179 -482 140z m289 -132
c122 -58 205 -166 230 -302 32 -171 -64 -352 -231 -434 -61 -30 -72 -32 -171
-32 -99 0 -110 2 -171 32 -125 62 -209 173 -232 306 -28 166 63 346 214 423
80 40 95 43 199 41 84 -2 103 -6 162 -34z"/>
<path d="M943 1530 c-38 -25 -59 -68 -68 -136 -8 -54 5 -94 29 -94 8 0 16 -10
20 -23 3 -12 15 -33 27 -45 11 -13 19 -25 17 -27 -2 -3 -49 41 -103 95 -55 55
-105 100 -111 100 -19 0 -45 36 -38 54 6 17 -3 20 -30 10 -26 -10 -19 -27 34
-79 27 -28 50 -54 50 -59 0 -4 18 -30 41 -57 22 -27 38 -53 34 -59 -3 -5 -24
-10 -46 -10 -38 0 -40 -2 -37 -27 3 -27 5 -28 65 -28 34 0 64 -3 67 -6 3 -3
-12 -16 -34 -28 -44 -25 -60 -47 -60 -85 l0 -26 220 0 220 0 0 39 c0 32 -6 43
-34 65 -19 14 -38 26 -43 26 -15 0 -83 61 -83 75 0 7 6 15 14 18 8 3 20 22 27
41 8 22 20 36 33 38 51 7 36 144 -23 210 -25 28 -35 32 -92 35 -52 3 -70 0
-96 -17z"/>
</g>
</svg>
